<svg enable-background="new 0 0 500 500" viewBox="0 0 500 500" xmlns="http://www.w3.org/2000/svg">
    <path
        d="m408.1 118.5h-105.7v-24.1c0-16.8-13.6-30.4-30.4-30.4h-90c-16.8 0-30.4 13.6-30.4 30.4v24.2h-105.8c-16.8 0-30.4 13.6-30.4 30.4v79.3c0 6.9 5.4 12.5 12.2 12.8l.5.1v180.2c0 7.2 5.8 13 13 13h371.6c7.2 0 13-5.8 13-13 0-2.4-1.9-4.3-4.3-4.3s-4.3 1.9-4.3 4.3-2 4.3-4.3 4.3h-371.7c-2.4 0-4.3-2-4.3-4.3v-178l169.1 43.4v12.7c0 7.2 5.8 13 13 13h16.1c7.2 0 13-5.8 13-13v-12.6l19.7-5.2c2.3-.6 3.7-3 3.1-5.3s-3-3.7-5.3-3.1l-17.5 4.6v-11.2c0-7.2-5.8-13-13-13h-16.1c-7.2 0-13 5.8-13 13v11.2l-176.6-45.4c-.4-.1-.7-.1-1.1-.1-2.3 0-4.1-1.9-4.1-4.1v-79.3c0-12 9.7-21.7 21.7-21.7h362.3c12 0 21.7 9.7 21.7 21.7v63.7c0 2.4 1.9 4.3 4.3 4.3s4.3-1.9 4.3-4.3v-63.7c.1-16.8-13.5-30.5-30.3-30.5zm-193.6 148.1c0-2.4 1.9-4.3 4.3-4.3h16.2c2.4 0 4.3 2 4.3 4.3v32.8c0 2.4-1.9 4.3-4.3 4.3h-16.1c-2.4 0-4.3-2-4.3-4.3v-32.8zm-54.3-172.2c0-12 9.7-21.7 21.7-21.7h90c12 0 21.7 9.7 21.7 21.7v24.2h-133.4z" />
    <g fill="#be1622">
        <path
            d="m362 332.8c-3.3 0-6.5-.3-9.8-.8-15.5-2.6-29.1-11.1-38.3-23.9-18.9-26.4-12.8-63.3 13.7-82.2 12.8-9.2 28.4-12.8 44-10.2 15.5 2.6 29.1 11.1 38.3 23.9 18.9 26.4 12.8 63.3-13.7 82.2-10.2 7.2-22.1 11-34.2 11zm-.3-109.3c-10.4 0-20.5 3.2-29.1 9.4-22.5 16.1-27.8 47.6-11.6 70.1 7.8 10.9 19.4 18.2 32.6 20.4s26.6-.9 37.5-8.7c22.5-16.1 27.8-47.6 11.7-70.1-7.8-10.9-19.4-18.1-32.6-20.3-2.9-.5-5.7-.8-8.5-.8z" />
        <path
            d="m362 352.4c-4.3 0-8.7-.4-13.1-1.1-20.7-3.4-38.8-14.7-51-31.8-25.2-35.3-17-84.4 18.2-109.6 17.1-12.2 37.9-17 58.6-13.6s38.8 14.7 51 31.8c12.2 17.1 17 37.9 13.6 58.6s-14.7 38.8-31.8 51c-13.4 9.7-29.3 14.7-45.5 14.7zm-.3-148.5c-14.4 0-28.5 4.5-40.5 13-31.3 22.4-38.6 66.2-16.2 97.5 22.4 31.4 66.2 38.6 97.5 16.2 15.2-10.9 25.2-27 28.3-45.4s-1.2-36.9-12.1-52.1c-10.8-15.2-27-25.2-45.4-28.3-3.9-.6-7.8-.9-11.6-.9z" />
        <path
            d="m460.8 436.1c-1.3 0-2.7-.1-4-.3-6.3-1.1-11.9-4.5-15.6-9.7l-41.2-71.5c-1.2-2.1-.5-4.7 1.6-5.9s4.7-.5 5.9 1.6l41 71.2c2.1 2.9 5.7 5.1 9.7 5.8s8.1-.3 11.4-2.6c3.3-2.4 5.5-5.9 6.2-9.9s-.3-8.1-2.6-11.4l-53.8-61.5c-1.6-1.8-1.4-4.5.4-6.1s4.5-1.4 6.1.4l54.1 61.8c4 5.5 5.4 11.9 4.4 18.2-1.1 6.3-4.5 11.9-9.7 15.6-4.2 2.7-9 4.3-13.9 4.3z" />
    </g>
</svg>
